{
	"asset":{
		"generator":"Khronos glTF Blender I/O v3.5.30",
		"version":"2.0"
	},
	"extensionsUsed":[
		"KHR_materials_clearcoat",
		"KHR_materials_specular",
		"KHR_materials_ior"
	],
	"scene":0,
	"scenes":[
		{
			"name":"Scene",
			"nodes":[
				0,
				1,
				2
			]
		}
	],
	"nodes":[
		{
			"mesh":0,
			"name":"Cube.003",
			"scale":[
				0.6082589030265808,
				0.11986961960792542,
				0.6082589030265808
			],
			"translation":[
				0.040425557643175125,
				2.270876169204712,
				0.040494322776794434
			]
		},
		{
			"mesh":1,
			"name":"Cube.002",
			"rotation":[
				0.046988826245069504,
				0.38679447770118713,
				0.11344118416309357,
				0.9139547944068909
			],
			"scale":[
				0.07592181861400604,
				0.7855327725410461,
				0.07685668021440506
			],
			"translation":[
				0.042375802993774414,
				1.3277878761291504,
				0.035219043493270874
			]
		},
		{
			"mesh":2,
			"name":"Cube",
			"scale":[
				0.8742984533309937,
				0.8742984533309937,
				0.8742984533309937
			],
			"translation":[
				0.040425557643175125,
				2.93261456489563,
				0.0009294017218053341
			]
		}
	],
	"materials":[
		{
			"doubleSided":true,
			"extensions":{
				"KHR_materials_clearcoat":{
					"clearcoatFactor":0.27727270126342773,
					"clearcoatRoughnessFactor":0.029999999329447746
				},
				"KHR_materials_specular":{
					"specularColorFactor":[
						6.48,
						6.48,
						6.48
					]
				},
				"KHR_materials_ior":{
					"ior":1.25
				}
			},
			"name":"FabricDenim003_3K",
			"pbrMetallicRoughness":{
				"baseColorFactor":[
					0.8000000715255737,
					0,
					0.002029338153079152,
					1
				],
				"roughnessFactor":0.3499999940395355
			}
		},
		{
			"doubleSided":true,
			"extensions":{
				"KHR_materials_specular":{
					"specularColorFactor":[
						2.371357614441398,
						2.371357614441398,
						2.371357614441398
					]
				},
				"KHR_materials_ior":{
					"ior":1.4500000476837158
				}
			},
			"name":"WoodQuarteredChiffon001_6K",
			"pbrMetallicRoughness":{
				"baseColorFactor":[
					0.8000000715255737,
					0.4030601680278778,
					0.16015221178531647,
					1
				],
				"roughnessFactor":0.5527864098548889
			}
		}
	],
	"meshes":[
		{
			"name":"Cube.001",
			"primitives":[
				{
					"attributes":{
						"COLOR_0":0,
						"POSITION":1,
						"TEXCOORD_0":2,
						"NORMAL":3
					},
					"indices":4,
					"material":0
				}
			]
		},
		{
			"name":"Cube.002",
			"primitives":[
				{
					"attributes":{
						"POSITION":5,
						"TEXCOORD_0":6,
						"NORMAL":7
					},
					"indices":8,
					"material":1
				}
			]
		},
		{
			"name":"Cube.003",
			"primitives":[
				{
					"attributes":{
						"POSITION":9,
						"TEXCOORD_0":10,
						"NORMAL":11
					},
					"indices":12,
					"material":0
				}
			]
		}
	],
	"accessors":[
		{
			"bufferView":0,
			"componentType":5123,
			"count":6132,
			"normalized":true,
			"type":"VEC4"
		},
		{
			"bufferView":1,
			"componentType":5126,
			"count":6132,
			"max":[
				1.2851619720458984,
				1.1937631368637085,
				1.4811477661132812
			],
			"min":[
				-1.2851619720458984,
				-1.2583410739898682,
				-1.3164315223693848
			],
			"type":"VEC3"
		},
		{
			"bufferView":2,
			"componentType":5126,
			"count":6132,
			"type":"VEC2"
		},
		{
			"bufferView":3,
			"componentType":5126,
			"count":6132,
			"type":"VEC3"
		},
		{
			"bufferView":4,
			"componentType":5123,
			"count":33792,
			"type":"SCALAR"
		},
		{
			"bufferView":5,
			"componentType":5126,
			"count":12212,
			"max":[
				9.423603057861328,
				1.0413824319839478,
				14.327757835388184
			],
			"min":[
				-18.637832641601562,
				-1.8594210147857666,
				-14.395666122436523
			],
			"type":"VEC3"
		},
		{
			"bufferView":6,
			"componentType":5126,
			"count":12212,
			"type":"VEC2"
		},
		{
			"bufferView":7,
			"componentType":5126,
			"count":12212,
			"type":"VEC3"
		},
		{
			"bufferView":8,
			"componentType":5123,
			"count":69120,
			"type":"SCALAR"
		},
		{
			"bufferView":9,
			"componentType":5126,
			"count":16308,
			"max":[
				0.9476040601730347,
				1.000379204750061,
				1
			],
			"min":[
				-0.9476306438446045,
				-1,
				-1.2608145475387573
			],
			"type":"VEC3"
		},
		{
			"bufferView":10,
			"componentType":5126,
			"count":16308,
			"type":"VEC2"
		},
		{
			"bufferView":11,
			"componentType":5126,
			"count":16308,
			"type":"VEC3"
		},
		{
			"bufferView":12,
			"componentType":5123,
			"count":95232,
			"type":"SCALAR"
		}
	],
	"bufferViews":[
		{
			"buffer":0,
			"byteLength":49056,
			"byteOffset":0,
			"target":34962
		},
		{
			"buffer":0,
			"byteLength":73584,
			"byteOffset":49056,
			"target":34962
		},
		{
			"buffer":0,
			"byteLength":49056,
			"byteOffset":122640,
			"target":34962
		},
		{
			"buffer":0,
			"byteLength":73584,
			"byteOffset":171696,
			"target":34962
		},
		{
			"buffer":0,
			"byteLength":67584,
			"byteOffset":245280,
			"target":34963
		},
		{
			"buffer":0,
			"byteLength":146544,
			"byteOffset":312864,
			"target":34962
		},
		{
			"buffer":0,
			"byteLength":97696,
			"byteOffset":459408,
			"target":34962
		},
		{
			"buffer":0,
			"byteLength":146544,
			"byteOffset":557104,
			"target":34962
		},
		{
			"buffer":0,
			"byteLength":138240,
			"byteOffset":703648,
			"target":34963
		},
		{
			"buffer":0,
			"byteLength":195696,
			"byteOffset":841888,
			"target":34962
		},
		{
			"buffer":0,
			"byteLength":130464,
			"byteOffset":1037584,
			"target":34962
		},
		{
			"buffer":0,
			"byteLength":195696,
			"byteOffset":1168048,
			"target":34962
		},
		{
			"buffer":0,
			"byteLength":190464,
			"byteOffset":1363744,
			"target":34963
		}
	],
	"buffers":[
		{
			"byteLength":1554208,
			"uri":"data:application/octet-stream;base64,"
		}
	]
}
