{
	"asset":{
		"generator":"Khronos glTF Blender I/O v3.5.30",
		"version":"2.0"
	},
	"scene":0,
	"scenes":[
		{
			"name":"Scene",
			"nodes":[
				0
			]
		}
	],
	"nodes":[
		{
			"mesh":0,
			"name":"Curve",
			"rotation":[
				0,
				0.707106351852417,
				-0.7071071863174438,
				3.793072878011117e-08
			],
			"scale":[
				5,
				5,
				5
			],
			"translation":[
				0.20285344123840332,
				0,
				0.022118791937828064
			]
		}
	],
	"materials":[
		{
			"doubleSided":true,
			"name":"Material",
			"pbrMetallicRoughness":{
				"baseColorFactor":[
					0.8000000715255737,
					0,
					0.01044466532766819,
					1
				],
				"metallicFactor":0,
				"roughnessFactor":0.4000000059604645
			}
		}
	],
	"meshes":[
		{
			"name":"Curve",
			"primitives":[
				{
					"attributes":{
						"POSITION":0,
						"TEXCOORD_0":1,
						"NORMAL":2
					},
					"indices":3,
					"material":0
				}
			]
		}
	],
	"accessors":[
		{
			"bufferView":0,
			"componentType":5126,
			"count":741,
			"max":[
				0.09784732013940811,
				0.011459079571068287,
				2.7567148208618164e-07
			],
			"min":[
				0.022371647879481316,
				0,
				-0.12019329518079758
			],
			"type":"VEC3"
		},
		{
			"bufferView":1,
			"componentType":5126,
			"count":741,
			"type":"VEC2"
		},
		{
			"bufferView":2,
			"componentType":5126,
			"count":741,
			"type":"VEC3"
		},
		{
			"bufferView":3,
			"componentType":5123,
			"count":4446,
			"type":"SCALAR"
		}
	],
	"bufferViews":[
		{
			"buffer":0,
			"byteLength":8892,
			"byteOffset":0,
			"target":34962
		},
		{
			"buffer":0,
			"byteLength":5928,
			"byteOffset":8892,
			"target":34962
		},
		{
			"buffer":0,
			"byteLength":8892,
			"byteOffset":14820,
			"target":34962
		},
		{
			"buffer":0,
			"byteLength":8892,
			"byteOffset":23712,
			"target":34963
		}
	],
	"buffers":[
		{
			"byteLength":32604,
			"uri":"data:application/octet-stream;base64,"
		}
	]
}
